    <svg width="844" height="670" fill="none" xmlns="http://www.w3.org/2000/svg">
        <path d="M-4320 -18H-3637.02C-3637.02 -18 -3484.03 46.9181 -3477.53 357.842C-3471.03 668.765 -3637.02 731.731 -3637.02 731.731H-4320V-18Z" fill="url(#paint0_linear)"/>
        <path d="M-4320 -18H-3637.02C-3637.02 -18 -3484.03 46.9181 -3477.53 357.842C-3471.03 668.765 -3637.02 731.731 -3637.02 731.731H-4320V-18Z" fill="#5C9DF3" fill-opacity="0.9"/>
        <path d="M0.5 1.5H683.475C683.475 1.5 836.47 66.4181 842.97 377.342C849.469 688.265 683.475 751.231 683.475 751.231H0.5V1.5Z" fill="url(#paint1_linear)"/>
        <path d="M0.5 1.5H683.475C683.475 1.5 836.47 66.4181 842.97 377.342C849.469 688.265 683.475 751.231 683.475 751.231H0.5V1.5Z" fill="#5C9DF3" fill-opacity="0.9"/>
    </svg>